<?xml version="1.0" encoding="utf-8"?>
<svg viewBox="0 0 500 500" xmlns="http://www.w3.org/2000/svg">
  <defs>
    <path id="path-0" d="M 238.346 249.165 C 262.092 258.425 271.257 266.482 282.255 272.396 C 294.229 282.031 301.715 292.192 306.339 302.171 C 313.826 314.565 320.482 320.42 329.304 326.86 C 339.261 332.869 347.551 336.658 355.362 340.405 C 360.838 344.229 363.421 347.131 366.086 351.188 C 371.055 356.882 374.21 361.338 377.205 365.904 L 377.686 366.717 C 378.165 367.766 378.86 368.844 379.609 369.723" style="fill: none;"/>
  </defs>
  <rect x="298.284" y="250.238" width="71.369" height="326.311" style="stroke: rgb(0, 0, 0); paint-order: fill; fill-rule: nonzero; fill: none; stroke-width: 4px; transform-box: fill-box; transform-origin: 50% 50%;" transform="matrix(0.701594, -0.712577, 0.712577, 0.701594, -35.729198, -109.362269)" rx="7.102" ry="7.102"/>
  <rect x="298.284" y="43.707" width="71.369" height="56.994" style="stroke: rgb(0, 0, 0); paint-order: fill; fill-rule: nonzero; fill: none; stroke-width: 4px; transform-box: fill-box; transform-origin: 50% 50%;" rx="7.234" ry="7.234" transform="matrix(0.702283, -0.711898, 0.711898, 0.702283, -130.71925, 136.89264)"/>
  <rect x="73.242" y="83.42" width="8.214" height="82.482" style="paint-order: stroke; stroke: rgb(0, 0, 0); fill: rgba(215, 2, 2, 0.68); stroke-width: 3px; transform-box: fill-box; transform-origin: 50% 50%;" rx="4.107" ry="4.107" transform="matrix(0.900446, -0.434968, 0.434968, 0.900446, 88.445184, -13.295688)"/>
  <rect x="73.242" y="83.42" width="8.214" height="82.482" style="paint-order: stroke; stroke: rgb(0, 0, 0); fill: rgba(215, 2, 2, 0.68); stroke-width: 3px; transform-origin: 77.349px 124.661px;" rx="4.107" ry="4.107" transform="matrix(0.724809, -0.68895, 0.68895, 0.724809, 50.693802, 7.325131)"/>
  <rect x="73.242" y="83.42" width="8.214" height="82.482" style="paint-order: stroke; stroke: rgb(0, 0, 0); fill: rgba(215, 2, 2, 0.68); stroke-width: 3px; transform-origin: 77.349px 124.661px;" rx="4.107" ry="4.107" transform="matrix(0.500041, -0.866002, 0.866002, 0.500041, 28.124137, 47.082912)"/>
</svg>