<?xml version="1.0" encoding="utf-8"?>
<svg viewBox="0 0 500 500" xmlns="http://www.w3.org/2000/svg" xmlns:bx="https://boxy-svg.com">
  <defs>
    <path id="path-0" d="M 238.346 249.165 C 262.092 258.425 271.257 266.482 282.255 272.396 C 294.229 282.031 301.715 292.192 306.339 302.171 C 313.826 314.565 320.482 320.42 329.304 326.86 C 339.261 332.869 347.551 336.658 355.362 340.405 C 360.838 344.229 363.421 347.131 366.086 351.188 C 371.055 356.882 374.21 361.338 377.205 365.904 L 377.686 366.717 C 378.165 367.766 378.86 368.844 379.609 369.723" style="fill: none;"/>
    <bx:grid x="1.458" y="1.991" width="124.385" height="114.285"/>
  </defs>
  <rect x="214.009" y="129.877" width="71.369" height="326.311" style="stroke: rgb(0, 0, 0); paint-order: fill; fill-rule: nonzero; fill: none; stroke-width: 4px; transform-box: fill-box; transform-origin: 50% 50%;" rx="8.86" ry="8.86"/>
  <rect x="214.009" y="81.982" width="71.369" height="39.176" style="stroke: rgb(0, 0, 0); paint-order: fill; fill-rule: nonzero; fill: none; stroke-width: 4px; transform-box: fill-box; transform-origin: 50% 50%;" rx="6.572" ry="6.572"/>
  <rect x="270.031" y="67.207" width="7.926" height="14.775" style="stroke: rgb(0, 0, 0); paint-order: fill; fill-rule: nonzero; fill: none; stroke-width: 4px; transform-origin: 273.994px 74.595px;" rx="0.609" ry="0.609"/>
  <rect x="227.4" y="100.743" width="17.104" height="8.054" style="stroke: rgb(0, 0, 0); paint-order: fill; fill-rule: nonzero; fill: none; stroke-width: 4px; transform-origin: 235.952px 104.771px;" rx="0.609" ry="0.609"/>
  <rect x="256.703" y="102.675" width="3.137" height="4.075" style="stroke: rgb(0, 0, 0); paint-order: fill; fill-rule: nonzero; fill: none; stroke-width: 4px; transform-origin: 258.272px 104.713px;" rx="0.609" ry="0.609"/>
  <ellipse style="stroke: rgb(0, 0, 0); stroke-width: 2px; fill: rgb(244, 127, 127);" cx="250.176" cy="152.393" rx="7.668" ry="7.668"/>
  <ellipse style="stroke: rgb(0, 0, 0); stroke-width: 2px; fill: rgb(244, 127, 127);" cx="250.176" cy="175.651" rx="7.668" ry="7.668"/>
  <ellipse style="stroke: rgb(0, 0, 0); stroke-width: 2px; fill: rgb(244, 127, 127);" cx="250.176" cy="198.834" rx="7.668" ry="7.668"/>
  <rect x="266.184" y="102.889" width="3.137" height="4.075" style="stroke: rgb(0, 0, 0); paint-order: fill; fill-rule: nonzero; fill: none; stroke-width: 4px; transform-origin: 267.753px 104.927px;" rx="0.609" ry="0.609" transform="matrix(1, 0, 0, 1, 0.710354, -0.21385)"/>
  <rect x="276.116" y="102.889" width="3.137" height="4.075" style="stroke: rgb(0, 0, 0); paint-order: fill; fill-rule: nonzero; fill: none; stroke-width: 4px; transform-origin: 277.685px 104.927px;" rx="0.609" ry="0.609" transform="matrix(1, 0, 0, 1, 0.710354, -0.21385)"/>
</svg>